<?xml version="1.0" encoding="UTF-8"?>
<svg id="Layer_1" xmlns="http://www.w3.org/2000/svg" version="1.1" viewBox="0 0 141.73 141.73">
  <!-- Generator: Adobe Illustrator 30.3.0, SVG Export Plug-In . SVG Version: 2.1.3 Build 182)  -->
  <defs>
    <style>
      .st0 {
        fill: none;
        stroke: #231f20;
        stroke-miterlimit: 10;
      }
    </style>
  </defs>
  <path id="Games" class="st0" d="M99.21,42.52h-56.69c-15.66,0-28.35,12.69-28.35,28.35s12.69,28.35,28.35,28.35c6.38,0,12.27-2.11,17.01-5.67h22.68c4.74,3.56,10.63,5.67,17.01,5.67,15.66,0,28.35-12.69,28.35-28.35s-12.69-28.35-28.35-28.35ZM52.44,74.68h-5.67v5.67h0c0,2.35-1.9,4.25-4.25,4.25s-4.25-1.9-4.25-4.25h0v-5.67h-5.67c-2.35,0-4.25-1.9-4.25-4.25s1.9-4.25,4.25-4.25h5.67v-5.67c0-2.35,1.9-4.25,4.25-4.25s4.25,1.9,4.25,4.25v5.67h5.67c2.35,0,4.25,1.9,4.25,4.25s-1.9,4.25-4.25,4.25ZM89.29,75.12c-2.35,0-4.25-1.9-4.25-4.25s1.9-4.25,4.25-4.25,4.25,1.9,4.25,4.25-1.9,4.25-4.25,4.25ZM99.21,85.04c-2.35,0-4.25-1.9-4.25-4.25s1.9-4.25,4.25-4.25,4.25,1.9,4.25,4.25-1.9,4.25-4.25,4.25ZM99.21,65.2c-2.35,0-4.25-1.9-4.25-4.25s1.9-4.25,4.25-4.25,4.25,1.9,4.25,4.25-1.9,4.25-4.25,4.25ZM109.13,75.12c-2.35,0-4.25-1.9-4.25-4.25s1.9-4.25,4.25-4.25,4.25,1.9,4.25,4.25-1.9,4.25-4.25,4.25Z"/>
</svg>