<?xml version="1.0" encoding="UTF-8"?>
<svg id="Layer_1" xmlns="http://www.w3.org/2000/svg" version="1.1" viewBox="0 0 141.73 141.73">
  <!-- Generator: Adobe Illustrator 30.3.0, SVG Export Plug-In . SVG Version: 2.1.3 Build 182)  -->
  <defs>
    <style>
      .st0 {
        fill: none;
        stroke: #231f20;
        stroke-miterlimit: 10;
      }
    </style>
  </defs>
  <path id="Library" class="st0" d="M14.17,34.02v73.69c0,4.7,3.81,8.51,8.51,8.51h96.37c4.7,0,8.51-3.81,8.51-8.51V34.02c0-4.7-3.81-8.51-8.51-8.51H22.68c-4.7,0-8.51,3.81-8.51,8.51ZM68.03,110.75H28.35c-4.7,0-8.51-3.81-8.51-8.51v-62.35c0-4.7,3.81-8.51,8.51-8.51h39.68v79.37ZM113.37,110.75h-39.67V31.38h39.67c4.7,0,8.52,3.81,8.52,8.52v62.34c0,4.7-3.81,8.52-8.52,8.52Z"/>
</svg>