<?xml version="1.0" encoding="UTF-8"?>
<svg id="Layer_1" xmlns="http://www.w3.org/2000/svg" version="1.1" viewBox="0 0 141.73 141.73">
  <!-- Generator: Adobe Illustrator 30.3.0, SVG Export Plug-In . SVG Version: 2.1.3 Build 182)  -->
  <defs>
    <style>
      .st0 {
        fill: none;
        opacity: .93;
        stroke: #231f20;
        stroke-miterlimit: 10;
      }
    </style>
  </defs>
  <path id="Media" class="st0" d="M14.17,34v73.73c0,4.69,3.8,8.49,8.49,8.49h96.4c4.69,0,8.49-3.8,8.49-8.49V34c0-4.69-3.8-8.49-8.49-8.49H22.66c-4.69,0-8.49,3.8-8.49,8.49ZM112.76,85.28c-39.61-2.97-44.64-25.16-84.9-27.77-4.5-.29-8.02-3.98-8.02-8.48v-8.78c0-4.69,3.8-8.5,8.5-8.5h85.05c4.69,0,8.5,3.8,8.5,8.5v36.56c0,4.94-4.2,8.85-9.13,8.48Z"/>
</svg>