<?xml version="1.0" encoding="UTF-8"?>
<svg id="Layer_1" xmlns="http://www.w3.org/2000/svg" version="1.1" viewBox="0 0 141.73 141.73">
  <!-- Generator: Adobe Illustrator 30.3.0, SVG Export Plug-In . SVG Version: 2.1.3 Build 182)  -->
  <defs>
    <style>
      .st0 {
        fill: none;
        stroke: #231f20;
        stroke-linejoin: round;
      }
    </style>
  </defs>
  <g id="Search">
    <path class="st0" d="M89.29,14.17c-21.13,0-38.27,17.13-38.27,38.27s17.13,38.27,38.27,38.27,38.27-17.13,38.27-38.27S110.43,14.17,89.29,14.17ZM89.29,85.04c-18,0-32.6-14.59-32.6-32.6s14.59-32.6,32.6-32.6,32.6,14.59,32.6,32.6-14.59,32.6-32.6,32.6Z"/>
    <path class="st0" d="M61.91,79.82c-3.32-3.32-8.71-3.32-12.03,0h0s-33.22,33.22-33.22,33.22c-3.32,3.32-3.32,8.71,0,12.03,3.32,3.32,8.71,3.32,12.03,0l33.22-33.22h0c3.32-3.32,3.32-8.71,0-12.03Z"/>
  </g>
</svg>