<?xml version="1.0" encoding="UTF-8"?>
<svg id="Layer_1" xmlns="http://www.w3.org/2000/svg" version="1.1" viewBox="0 0 141.73 141.73">
  <!-- Generator: Adobe Illustrator 30.3.0, SVG Export Plug-In . SVG Version: 2.1.3 Build 182)  -->
  <defs>
    <style>
      .st0 {
        fill: none;
        stroke: #231f20;
        stroke-linejoin: round;
      }
    </style>
  </defs>
  <path id="Settings" class="st0" d="M127.48,44.86c.33-3.92-4.47-6.1-7.25-3.31l-2.81,2.81-4.15,4.15-4.15,4.15h-11.74l-8.3-8.3v-11.74l8.3-8.3,2.81-2.81c2.78-2.78.61-7.57-3.31-7.25-6.45.53-12.75,3.26-17.68,8.2-8.97,8.97-10.67,22.47-5.09,33.16l-30.88,30.88c-7.63-2.99-16.63-1.41-22.79,4.75-3.94,3.94-6,9.04-6.2,14.2-.1,2.61,3.02,4.01,4.86,2.16l5.84-5.84h0l3.11-3.11h8.81l6.23,6.23v8.81l-3.11,3.11h0s-5.87,5.87-5.87,5.87c-1.83,1.83-.44,4.93,2.15,4.84,5.17-.18,10.29-2.25,14.24-6.2,6.16-6.16,7.74-15.17,4.75-22.79l30.88-30.88c10.69,5.58,24.18,3.88,33.16-5.09,4.93-4.93,7.66-11.23,8.2-17.68Z"/>
</svg>