<?xml version="1.0" encoding="UTF-8"?>
<svg id="Layer_1" xmlns="http://www.w3.org/2000/svg" version="1.1" viewBox="0 0 141.73 141.73">
  <!-- Generator: Adobe Illustrator 30.3.0, SVG Export Plug-In . SVG Version: 2.1.3 Build 182)  -->
  <defs>
    <style>
      .st0 {
        fill: none;
        stroke: #231f20;
        stroke-miterlimit: 10;
      }
    </style>
  </defs>
  <path id="Shop" class="st0" d="M112.15,64.04l-30.93-30.93-14.68-14.68c-1.6-1.6-3.77-2.5-6.03-2.5H24.47c-4.71,0-8.53,3.82-8.53,8.53v36.05c0,2.26.9,4.43,2.5,6.03l14.68,14.68,30.93,30.93,11.14,11.14c3.33,3.33,8.73,3.33,12.06,0l36.05-36.05c3.33-3.33,3.33-8.73,0-12.06l-11.14-11.14ZM32.92,38.48c-4.99.95-9.29-3.35-8.34-8.34.53-2.79,2.78-5.04,5.57-5.57,4.99-.95,9.29,3.35,8.34,8.34-.53,2.79-2.78,5.04-5.57,5.57Z"/>
</svg>